HIERARCHY
ROOT Hips
{
    OFFSET   0.000000   0.000000   0.000000
    CHANNELS 6 Xposition Yposition Zposition Zrotation Xrotation Yrotation
    JOINT Chest
    {
        OFFSET   0.000000   8.007230   0.000000
        CHANNELS 3 Zrotation Xrotation Yrotation
        JOINT Chest2
        {
            OFFSET   0.000000  22.077100   0.000000
            CHANNELS 3 Zrotation Xrotation Yrotation
            JOINT Neck
            {
                OFFSET   0.000000  23.254700   0.000000
                CHANNELS 3 Zrotation Xrotation Yrotation
                JOINT Head
                {
                    OFFSET   0.000010  14.370000   1.956610
                    CHANNELS 3 Zrotation Xrotation Yrotation
                    End Site
                    {
                        OFFSET   0.000000  19.566000   0.000000
                    }
                }
            }
            JOINT LeftCollar
            {
                OFFSET   3.911900  19.017000  -0.467063
                CHANNELS 3 Zrotation Xrotation Yrotation
                JOINT LeftShoulder
                {
                    OFFSET  10.383700   0.000000   0.000000
                    CHANNELS 3 Zrotation Xrotation Yrotation
                    JOINT LeftElbow
                    {
                        OFFSET  26.662100   0.001671   0.000522
                        CHANNELS 3 Zrotation Xrotation Yrotation
                        JOINT LeftWrist
                        {
                            OFFSET  28.869000   0.000037  -0.000114
                            CHANNELS 3 Zrotation Xrotation Yrotation
                            JOINT LeftFinger0
                            {
                                OFFSET   2.044650  -2.323450   3.252850
                                CHANNELS 3 Zrotation Xrotation Yrotation
                                JOINT LeftFinger01
                                {
                                    OFFSET   3.088140   0.000000   0.000000
                                    CHANNELS 3 Zrotation Xrotation Yrotation
                                    JOINT LeftFinger02
                                    {
                                        OFFSET   2.639460   0.000000   0.000000
                                        CHANNELS 3 Zrotation Xrotation Yrotation
                                        End Site
                                        {
                                            OFFSET   2.582190   0.000000   0.000000
                                        }
                                    }
                                }
                            }
                            JOINT LeftFinger1
                            {
                                OFFSET   8.364480   0.000000   3.252850
                                CHANNELS 3 Zrotation Xrotation Yrotation
                                JOINT LeftFinger11
                                {
                                    OFFSET   4.646930   0.000000   0.000000
                                    CHANNELS 3 Zrotation Xrotation Yrotation
                                    JOINT LeftFinger12
                                    {
                                        OFFSET   2.323470   0.000000   0.000000
                                        CHANNELS 3 Zrotation Xrotation Yrotation
                                        End Site
                                        {
                                            OFFSET   2.273050   0.000000   0.000000
                                        }
                                    }
                                }
                            }
                            JOINT LeftFinger2
                            {
                                OFFSET   8.364490   0.000016   1.078090
                                CHANNELS 3 Zrotation Xrotation Yrotation
                                JOINT LeftFinger21
                                {
                                    OFFSET   5.111620   0.000000   0.000000
                                    CHANNELS 3 Zrotation Xrotation Yrotation
                                    JOINT LeftFinger22
                                    {
                                        OFFSET   2.788150   0.000013   0.000000
                                        CHANNELS 3 Zrotation Xrotation Yrotation
                                        End Site
                                        {
                                            OFFSET   2.727660   0.000000   0.000000
                                        }
                                    }
                                }
                            }
                            JOINT LeftFinger3
                            {
                                OFFSET   7.899780   0.000016  -1.078090
                                CHANNELS 3 Zrotation Xrotation Yrotation
                                JOINT LeftFinger31
                                {
                                    OFFSET   4.646930   0.000000   0.000000
                                    CHANNELS 3 Zrotation Xrotation Yrotation
                                    JOINT LeftFinger32
                                    {
                                        OFFSET   2.323470   0.000000   0.000000
                                        CHANNELS 3 Zrotation Xrotation Yrotation
                                        End Site
                                        {
                                            OFFSET   2.273050   0.000000   0.000000
                                        }
                                    }
                                }
                            }
                            JOINT LeftFinger4
                            {
                                OFFSET   7.435080   0.000000  -3.252850
                                CHANNELS 3 Zrotation Xrotation Yrotation
                                JOINT LeftFinger41
                                {
                                    OFFSET   3.717550   0.000000   0.000000
                                    CHANNELS 3 Zrotation Xrotation Yrotation
                                    JOINT LeftFinger42
                                    {
                                        OFFSET   1.858760   0.000000   0.000000
                                        CHANNELS 3 Zrotation Xrotation Yrotation
                                        End Site
                                        {
                                            OFFSET   1.818440   0.000000   0.000000
                                        }
                                    }
                                }
                            }
                        }
                    }
                }
            }
            JOINT RightCollar
            {
                OFFSET  -3.911900  19.017000  -0.467064
                CHANNELS 3 Zrotation Xrotation Yrotation
                JOINT RightShoulder
                {
                    OFFSET -10.383700   0.000000   0.000000
                    CHANNELS 3 Zrotation Xrotation Yrotation
                    JOINT RightElbow
                    {
                        OFFSET -26.662100   0.001633   0.000260
                        CHANNELS 3 Zrotation Xrotation Yrotation
                        JOINT RightWrist
                        {
                            OFFSET -28.869000  -0.000045  -0.000080
                            CHANNELS 3 Zrotation Xrotation Yrotation
                            JOINT RightFinger0
                            {
                                OFFSET  -2.044660  -2.323490   3.252850
                                CHANNELS 3 Zrotation Xrotation Yrotation
                                JOINT RightFinger01
                                {
                                    OFFSET  -3.088140   0.000000   0.000000
                                    CHANNELS 3 Zrotation Xrotation Yrotation
                                    JOINT RightFinger02
                                    {
                                        OFFSET  -2.639450   0.000000   0.000000
                                        CHANNELS 3 Zrotation Xrotation Yrotation
                                        End Site
                                        {
                                            OFFSET  -2.582190   0.000000   0.000000
                                        }
                                    }
                                }
                            }
                            JOINT RightFinger1
                            {
                                OFFSET  -8.364480   0.000000   3.252850
                                CHANNELS 3 Zrotation Xrotation Yrotation
                                JOINT RightFinger11
                                {
                                    OFFSET  -4.646920   0.000000   0.000000
                                    CHANNELS 3 Zrotation Xrotation Yrotation
                                    JOINT RightFinger12
                                    {
                                        OFFSET  -2.323470   0.000000   0.000000
                                        CHANNELS 3 Zrotation Xrotation Yrotation
                                        End Site
                                        {
                                            OFFSET  -2.273050   0.000000   0.000000
                                        }
                                    }
                                }
                            }
                            JOINT RightFinger2
                            {
                                OFFSET  -8.364480   0.000000   1.078090
                                CHANNELS 3 Zrotation Xrotation Yrotation
                                JOINT RightFinger21
                                {
                                    OFFSET  -5.111610   0.000000   0.000000
                                    CHANNELS 3 Zrotation Xrotation Yrotation
                                    JOINT RightFinger22
                                    {
                                        OFFSET  -2.788160   0.000000   0.000000
                                        CHANNELS 3 Zrotation Xrotation Yrotation
                                        End Site
                                        {
                                            OFFSET  -2.727660   0.000000   0.000000
                                        }
                                    }
                                }
                            }
                            JOINT RightFinger3
                            {
                                OFFSET  -7.899780   0.000000  -1.078090
                                CHANNELS 3 Zrotation Xrotation Yrotation
                                JOINT RightFinger31
                                {
                                    OFFSET  -4.646930   0.000000   0.000000
                                    CHANNELS 3 Zrotation Xrotation Yrotation
                                    JOINT RightFinger32
                                    {
                                        OFFSET  -2.323470   0.000000   0.000000
                                        CHANNELS 3 Zrotation Xrotation Yrotation
                                        End Site
                                        {
                                            OFFSET  -2.273050   0.000000   0.000000
                                        }
                                    }
                                }
                            }
                            JOINT RightFinger4
                            {
                                OFFSET  -7.435090   0.000000  -3.252850
                                CHANNELS 3 Zrotation Xrotation Yrotation
                                JOINT RightFinger41
                                {
                                    OFFSET  -3.717550   0.000000   0.000000
                                    CHANNELS 3 Zrotation Xrotation Yrotation
                                    JOINT RightFinger42
                                    {
                                        OFFSET  -1.858760   0.000000   0.000000
                                        CHANNELS 3 Zrotation Xrotation Yrotation
                                        End Site
                                        {
                                            OFFSET  -1.818440   0.000000   0.000000
                                        }
                                    }
                                }
                            }
                        }
                    }
                }
            }
        }
    }
    JOINT LeftHip
    {
        OFFSET   9.782990   0.000000   0.000000
        CHANNELS 3 Zrotation Xrotation Yrotation
        JOINT LeftKnee
        {
            OFFSET  -0.000063 -41.789100   0.001657
            CHANNELS 3 Zrotation Xrotation Yrotation
            JOINT LeftAnkle
            {
                OFFSET   0.000078 -41.133200  -0.000113
                CHANNELS 3 Zrotation Xrotation Yrotation
                JOINT LeftToe
                {
                    OFFSET   0.000000  -6.358970  14.674500
                    CHANNELS 3 Zrotation Xrotation Yrotation
                    End Site
                    {
                        OFFSET   0.000000   0.000000   3.913200
                    }
                }
            }
        }
    }
    JOINT RightHip
    {
        OFFSET  -9.782990   0.000000   0.000000
        CHANNELS 3 Zrotation Xrotation Yrotation
        JOINT RightKnee
        {
            OFFSET   0.000053 -41.789200   0.000277
            CHANNELS 3 Zrotation Xrotation Yrotation
            JOINT RightAnkle
            {
                OFFSET   0.000030 -41.133200  -0.000150
                CHANNELS 3 Zrotation Xrotation Yrotation
                JOINT RightToe
                {
                    OFFSET   0.000000  -6.358960  14.674500
                    CHANNELS 3 Zrotation Xrotation Yrotation
                    End Site
                    {
                        OFFSET   0.000000   0.000000   3.913200
                    }
                }
            }
        }
    }
}
MOTION
Frames: 4
Frame Time:   0.016667
  0.544726  89.562900   0.114064  -1.890890  -5.795840  -1.398580   0.778390   2.824290   0.237713   1.547850   5.651530   0.437734   0.264137   0.228585   0.004004   0.424575   0.463697   1.775830  -4.900330   0.486765   3.244890 -74.209300  13.053500   0.842461  -1.501720  -3.459650 -14.291400  11.684700  -4.123430   2.439500  39.322200  35.621700 -68.332800 -32.712600  -0.000813  -0.000504 -11.356300  -0.002123  -0.003522 -29.034100   5.503060  -9.799590 -24.143800  -0.012669  -0.004706 -16.900700  -0.008211  -0.006155 -28.494300   0.246858  -0.481873 -36.089800  -0.007491  -0.002493 -24.035800  -0.005163  -0.000762 -28.368800   0.245824  -0.482452 -34.797200  -0.003515  -0.002151 -23.175000  -0.006535  -0.000762 -32.504000   0.294630  -0.462410 -48.757800  -0.003542  -0.000180 -32.472700  -0.004442  -0.002942   8.520770   1.660380   6.725900  70.663200   4.177550  -5.410460  -1.223510  -6.070980  10.214500 -12.424800  -0.414786  -4.118200 -33.078700  22.307800  61.958200  31.560200  -0.003152   0.002030  10.774800   0.002309   0.006420  31.338100   9.068140  14.511800  26.587000  -0.001987   0.001282  18.624700   0.001698   0.001204  28.539100   3.652760   6.668680  40.548200  -0.003681   0.011986  27.005100   0.001016   0.006779  27.722200   3.122740   5.921470  31.274200  -0.001724  -0.000060  20.828600  -0.005724   0.000361  35.419900   0.142534   0.196884  53.130200  -0.012013   0.002996  35.384700  -0.003024   0.009761   1.687740   8.429430   4.457490   1.302770   0.045178   8.225230  -1.488170  -3.566540   1.216060  -0.000000   0.000000   0.000000   2.285700   7.977760   3.210840   0.041673   1.028010  -6.851820  -1.006930  -4.548310  -2.110060   0.000000   0.000000   0.000000
  0.544937  89.562900   0.113743  -1.890660  -5.802390  -1.396970   0.776765   2.838730   0.242026   1.544480   5.680470   0.446257   0.264434   0.236133   0.004006   0.424889   0.478946   1.790000  -4.900600   0.492727   3.237710 -74.182700  13.075300   0.826635  -1.514620  -3.484430 -14.300000  11.684900  -4.123280   2.441850  39.313200  35.624500 -68.299500 -32.739700  -0.000806  -0.000465 -11.369800  -0.002123  -0.003516 -29.037100   5.493550  -9.783080 -24.143700  -0.012676  -0.004704 -16.900600  -0.008210  -0.006155 -28.494300   0.246859  -0.468341 -36.081000  -0.007480  -0.002485 -24.029900  -0.005156  -0.000757 -28.368800   0.245825  -0.468899 -34.787800  -0.003500  -0.002142 -23.168700  -0.006529  -0.000756 -32.496300   0.286274  -0.449461 -48.746100  -0.003533  -0.000173 -32.464900  -0.004439  -0.002937   8.539810   1.639810   6.740780  70.652400   4.182790  -5.429730  -1.198790  -6.109750  10.197700 -12.413700  -0.391932  -4.118600 -33.078300  22.292100  61.939800  31.560200  -0.003151   0.002050  10.775800   0.002307   0.006418  31.310900   9.193840  14.717200  26.591000  -0.001989   0.001280  18.624800   0.001701   0.001201  28.539700   3.649250   6.667320  40.507600  -0.003674   0.012002  26.978100   0.001008   0.006782  27.717300   3.122800   5.917210  31.244600  -0.001713  -0.000068  20.808900  -0.005716   0.000354  35.408600   0.144190   0.200735  53.113300  -0.012004   0.002982  35.373500  -0.003026   0.009750   1.691270   8.413590   4.447330   1.303830   0.103608   8.230690  -1.492950  -3.598170   1.215630  -0.000000   0.000000  -0.000000   2.284190   7.982210   3.218290   0.046154   1.025670  -6.859060  -1.007040  -4.546870  -2.110050   0.000000   0.000000   0.000000
  0.545534  89.562800   0.113422  -1.890090  -5.816690  -1.390150   0.774861   2.863900   0.250953   1.540030   5.730900   0.463917   0.264730   0.251205   0.004008   0.424715   0.509450   1.804180  -4.901110   0.503656   3.228190 -74.147600  13.117200   0.796952  -1.534820  -3.526320 -14.312100  11.685400  -4.123060   2.449130  39.312500  35.636400 -68.255800 -32.780100  -0.000799  -0.000426 -11.390000  -0.002122  -0.003508 -29.040200   5.484040  -9.766570 -24.143600  -0.012690  -0.004701 -16.900500  -0.008206  -0.006157 -28.494400   0.246860  -0.454810 -36.066300  -0.007449  -0.002464 -24.020100  -0.005139  -0.000744 -28.368700   0.245826  -0.455346 -34.773100  -0.003462  -0.002120 -23.158900  -0.006511  -0.000741 -32.484300   0.277918  -0.436513 -48.728000  -0.003507  -0.000157 -32.452800  -0.004435  -0.002922   8.568610   1.603750   6.755610  70.637800   4.187980  -5.457290  -1.160070  -6.187340  10.165400 -12.401900  -0.357911  -4.119160 -33.074000  22.262000  61.902400  31.560600  -0.003147   0.002069  10.780300   0.002298   0.006414  31.265800   9.393050  15.044400  26.597400  -0.001995   0.001272  18.625000   0.001707   0.001192  28.540900   3.642590   6.661690  40.448600  -0.003655   0.012040  26.938800   0.000986   0.006790  27.710200   3.122880   5.911120  31.202400  -0.001685  -0.000088  20.780800  -0.005694   0.000334  35.389700   0.147190   0.207226  53.084900  -0.011979   0.002946  35.354600  -0.003031   0.009722   1.697060   8.397760   4.435910   1.304880   0.162035   8.236150  -1.497900  -3.629800   1.212380  -0.000000   0.000000  -0.000000   2.281350   7.997720   3.230880   0.053573   1.017670  -6.877750  -1.007190  -4.544630  -2.110020   0.000000   0.000000   0.000000
  0.546591  89.562800   0.115164  -1.890390  -5.834030  -1.376030   0.774246   2.885560   0.261494   1.537760   5.774330   0.484806   0.263147   0.268454   0.003994   0.422643   0.544500   1.802740  -4.900490   0.513669   3.225480 -74.134900  13.161200   0.767177  -1.547740  -3.563250 -14.315100  11.692000  -4.122940   2.463730  39.328900  35.657500 -68.234800 -32.801300  -0.000799  -0.000453 -11.400700  -0.002112  -0.003503 -29.040200   5.484270  -9.766950 -24.143600  -0.012710  -0.004695 -16.900600  -0.008199  -0.006161 -28.494300   0.247946  -0.456833 -36.051300  -0.007403  -0.002430 -24.010100  -0.005116  -0.000723 -28.368500   0.246911  -0.457377 -34.761200  -0.003406  -0.002083 -23.151000  -0.006481  -0.000717 -32.474800   0.279093  -0.438489 -48.713800  -0.003463  -0.000137 -32.443400  -0.004431  -0.002898   8.584950   1.572330   6.753100  70.635200   4.181880  -5.471200  -1.134300  -6.276000  10.131100 -12.407200  -0.337489  -4.119410 -33.061900  22.228700  61.851600  31.579700  -0.003138   0.002044  10.791500   0.002270   0.006405  31.225300   9.562960  15.325000  26.603100  -0.002000   0.001255  18.624700   0.001715   0.001180  28.543100   3.633540   6.646000  40.416500  -0.003624   0.012098  26.917500   0.000951   0.006803  27.706400   3.122940   5.908110  31.181300  -0.001642  -0.000121  20.766700  -0.005660   0.000304  35.371900   0.150422   0.213520  53.058200  -0.011939   0.002890  35.336900  -0.003037   0.009679   1.701090   8.420620   4.434980   1.303700   0.146536   8.231610  -1.497830  -3.627120   1.204100  -0.000000   0.000000   0.000000   2.281670   8.026950   3.241280   0.059342   1.001220  -6.906570  -1.007010  -4.542910  -2.106800   0.000000   0.000000  -0.000000
